<svg xmlns="http://www.w3.org/2000/svg" viewBox="0 0 1793.51 903.84"><defs><style>.cls-1{fill:#915dd8;}.cls-2{fill:#410f84;}</style></defs><g id="Ebene_2" data-name="Ebene 2"><g id="Ebene_1-2" data-name="Ebene 1"><path class="cls-1" d="M799.94,46.2h0c-89.18,99-133.17,234.84-113.41,371.88-65.93,99.56-90.64,223.58-64.57,347a1.05,1.05,0,0,1-.8,1.24h0a1.06,1.06,0,0,1-1.25-.78,797.67,797.67,0,0,1,180-719.32Z"/><path class="cls-1" d="M104.37,239.45h0c130.49,27.17,270-3.22,378.4-89.31C602,157,721.58,115.85,815.06,31.18a1.05,1.05,0,0,1,1.47.07h0a1.05,1.05,0,0,1,0,1.47A793.14,793.14,0,0,1,505.92,217.77,792.73,792.73,0,0,1,104.37,239.45Z"/><path class="cls-1" d="M104.37,239.45h0c130.49,27.17,270-3.22,378.4-89.31C602,157,721.58,115.85,815.06,31.18a1.05,1.05,0,0,1,1.47.07h0a1.05,1.05,0,0,1,0,1.47A793.14,793.14,0,0,1,505.92,217.77,792.73,792.73,0,0,1,104.37,239.45Z"/><path class="cls-1" d="M614.63,736.44h0c-43-126.17-140-230.82-269.29-280.44C290.6,349.88,194.4,267.8,74,230.35a1.05,1.05,0,0,1-.7-1.3h0a1.07,1.07,0,0,1,1.29-.71A793.17,793.17,0,0,1,391.81,401.69,792.7,792.7,0,0,1,614.63,736.44Z"/><path class="cls-2" d="M331.26,115.07a461.59,461.59,0,0,1-131-83.89h0A119.72,119.72,0,0,0,5.63,156.06l.09.28a119.32,119.32,0,0,0,33.41,51.92s0,0,0,0h0A119.15,119.15,0,0,0,91.4,236.06h0c4.36,1.05,8.6,2.49,13,3.39,130.49,27.17,270-3.22,378.4-89.31A457.7,457.7,0,0,1,331.26,115.07Z"/><path class="cls-2" d="M1009.85,83.82A119.68,119.68,0,0,0,921.71,2.88l-.28-.06a119.24,119.24,0,0,0-61.68,2.72h0A119.26,119.26,0,0,0,809.4,36.69h0c-3.1,3.24-6.48,6.18-9.46,9.5C710.76,145.24,666.77,281,686.53,418.08A456.9,456.9,0,0,1,931.58,233.93h0a119.66,119.66,0,0,0,78.27-150.11Z"/><path class="cls-2" d="M618.31,749.34h0c-1.31-4.28-2.24-8.66-3.68-12.89-43-126.17-140-230.82-269.29-280.44a457.76,457.76,0,0,1,46.83,148.31,461.29,461.29,0,0,1-5.64,155.45h0A119.72,119.72,0,0,0,593,863.87l.19-.22a119.19,119.19,0,0,0,27.72-55.17v0h0A119.24,119.24,0,0,0,618.31,749.34Z"/><path class="cls-2" d="M1313.9,361.23v53.54a17.5,17.5,0,0,1-17.49,17.5h-54.15a17.5,17.5,0,0,1-17.49-17.5V361.23a17.49,17.49,0,0,1,17.49-17.49h54.15a17.49,17.49,0,0,1,17.49,17.49"/><path class="cls-2" d="M1109.69,484.43h48.63V729.54q0,64.9-37.85,102.38t-103.76,37.46q-56.38,0-94-27.06t-47.11-74.69h74.43q6,17.79,24.68,27.7a85.61,85.61,0,0,0,40.73,9.89q29.32,0,49.38-17.66t20-47.24V729.79q-35.33,24.81-79.19,24.81-38.1,0-69.8-18.3A132.63,132.63,0,0,1,886,686.06q-18.18-32-18.17-70.3,0-38.09,18.17-70a134.59,134.59,0,0,1,49.87-50.5q31.71-18.54,69.8-18.55,53.88,0,92,35.34Zm-95.23,203.26q30.57,0,50.62-20.43t20.05-51.5q0-30.82-19.92-51t-50.75-20.18q-30.59,0-50.63,20.18t-20.05,51q0,31.08,19.93,51.5T1014.46,687.69Z"/><path class="cls-2" d="M1231.87,761.62V484.43h74.94V761.62Z"/><path class="cls-2" d="M1696,477.92q43.11,0,70.3,30.57t27.19,79.2V761.62h-74.93V600.22q0-27.83-10.65-42.23t-31-14.41q-25.08,0-39.23,17.92t-14.16,50.25V761.62h-72.93V600.22q0-27.83-10.4-42.23t-30.45-14.41q-25.56,0-39.85,17.92t-14.28,50.25V761.62h-74.94V484.43h52.13l14,34.34a107.68,107.68,0,0,1,36.72-29.83,101.09,101.09,0,0,1,46-11q26.31,0,47.37,11.65a84.7,84.7,0,0,1,33.08,32.71,105.2,105.2,0,0,1,86-44.36Z"/></g></g></svg>