<svg xmlns="http://www.w3.org/2000/svg" viewBox="0 0 1032.53 919.09"><defs><style>.cls-1{fill:#915dd8;}.cls-2{fill:#410f84;}</style></defs><g id="Ebene_2" data-name="Ebene 2"><g id="Ebene_1-2" data-name="Ebene 1"><path class="cls-1" d="M813.44,47h0C722.75,147.69,678,285.78,698.11,425.13c-67,101.25-92.17,227.35-65.66,352.84a1.07,1.07,0,0,1-.81,1.26h0a1.08,1.08,0,0,1-1.27-.79A811.14,811.14,0,0,1,813.44,47Z"/><path class="cls-1" d="M106.13,243.49h0c132.69,27.62,274.52-3.28,384.79-90.81,121.23,6.93,242.83-34.87,337.89-121a1.07,1.07,0,0,1,1.49.06h0a1.07,1.07,0,0,1,0,1.5A806.46,806.46,0,0,1,514.45,221.44,806,806,0,0,1,106.13,243.49Z"/><path class="cls-1" d="M106.13,243.49h0c132.69,27.62,274.52-3.28,384.79-90.81,121.23,6.93,242.83-34.87,337.89-121a1.07,1.07,0,0,1,1.49.06h0a1.07,1.07,0,0,1,0,1.5A806.46,806.46,0,0,1,514.45,221.44,806,806,0,0,1,106.13,243.49Z"/><path class="cls-1" d="M625,748.87h0C581.33,620.56,482.61,514.15,351.17,463.7c-55.66-107.92-153.49-191.38-276-229.46a1.07,1.07,0,0,1-.7-1.32h0a1.08,1.08,0,0,1,1.31-.73,806.48,806.48,0,0,1,322.6,176.28A806,806,0,0,1,625,748.87Z"/><path class="cls-2" d="M336.85,117A469.27,469.27,0,0,1,203.64,31.7h0a121.74,121.74,0,0,0-197.92,127l.09.28a121.32,121.32,0,0,0,34,52.8l0,0h0a121.16,121.16,0,0,0,53.12,28.26h0c4.42,1.06,8.74,2.52,13.18,3.44,132.69,27.62,274.52-3.28,384.79-90.81A465.59,465.59,0,0,1,336.85,117Z"/><path class="cls-2" d="M1026.89,85.23a121.69,121.69,0,0,0-89.63-82.3L937,2.87a121.18,121.18,0,0,0-62.72,2.76h0a121,121,0,0,0-51.16,31.66h0c-3.14,3.29-6.58,6.29-9.61,9.66C722.75,147.69,678,285.78,698.11,425.13A464.64,464.64,0,0,1,947.3,237.87h0a121.68,121.68,0,0,0,79.59-152.64Z"/><path class="cls-2" d="M628.74,762h0c-1.33-4.35-2.27-8.81-3.74-13.1C581.33,620.56,482.61,514.15,351.17,463.7a465.39,465.39,0,0,1,47.62,150.8,469,469,0,0,1-5.74,158.07h0A121.74,121.74,0,0,0,603,878.44l.2-.22a121.29,121.29,0,0,0,28.19-56.1s0,0,0,0v0A121.07,121.07,0,0,0,628.74,762Z"/></g></g></svg>